<svg width="1050" height="175" viewBox="0 0 1050 175" fill="none" xmlns="http://www.w3.org/2000/svg">
<g clip-path="url(#clip0_964_17553)">
<g clip-path="url(#clip1_964_17553)">
<path d="M48.2553 102.425L54.4193 102.553C52.2949 101.818 50.2349 100.924 48.2553 99.8709V102.425ZM57.5414 101.579V102.425L54.4193 102.553C60.2935 104.548 65.6688 104.819 69.66 103.702C66.4574 103.734 62.2891 103.287 57.5414 101.579ZM123.349 83.1901C125.908 83.1901 128 81.131 128 78.577C128 76.023 125.924 74.6662 123.349 74.6662C120.79 74.6662 118.698 76.039 118.698 78.577C118.698 81.115 120.774 83.1901 123.349 83.1901ZM118.682 102.425H128V84.7864H118.682V102.425ZM106.82 102.425H116.139V71.2502L106.82 75.608V102.425ZM101.831 83.3657C98.9024 80.4606 93.7202 80.6362 93.7202 80.6362C93.7202 80.6362 88.5219 80.4606 85.6089 83.3657C82.6799 86.2709 82.9052 88.777 82.9052 91.762C82.9052 94.747 82.6799 97.2371 85.6089 100.142C88.538 103.047 93.7202 102.872 93.7202 102.872C93.7202 102.872 98.9185 103.047 101.831 100.142C104.76 97.2371 104.535 94.747 104.535 91.762C104.519 88.761 104.744 86.2549 101.831 83.3657ZM95.4261 94.8427C95.4261 95.4174 95.1364 96.838 93.7041 96.838C92.2718 96.838 91.9821 95.4174 91.9821 94.8427V88.3939C91.9821 87.0052 93.1569 86.654 93.7041 86.654C94.2513 86.654 95.4261 86.9892 95.4261 88.3939V94.8427ZM78.3346 83.3657C75.4055 80.4606 70.2233 80.6362 70.2233 80.6362C70.2233 80.6362 65.0411 80.4606 62.1121 83.3657C61.8063 83.669 61.5166 83.9883 61.2591 84.3235C55.1113 79.5986 49.5911 76.9009 44.8274 74.5704V71.2662L41.2063 72.9582C32.4513 69.4305 26.8828 70.0531 25.5471 72.9742C25.5471 72.9742 21.5397 78.2099 35.493 90.6606V102.425H44.8113V97.8596C43.7652 97.1892 42.7191 96.4709 41.6891 95.6887C39.3072 93.9009 37.2794 92.2409 35.5091 90.6765V85.7282C37.6174 88.0747 40.4177 90.7404 44.1032 93.7573L44.8274 94.3319V89.5751C44.8274 88.4737 45.101 86.67 46.5655 86.67C48.03 86.67 48.2714 87.7714 48.2714 89.0643V96.838C51.1683 98.7855 54.2744 100.366 57.5575 101.563V86.5742C57.5575 83.5892 55.401 80.6042 51.0235 80.6042C48.4807 80.5883 46.1149 81.9132 44.8274 84.1V75.4324C51.5707 78.7685 58.33 82.8549 60.905 84.7385C59.2635 87.069 59.4083 89.2239 59.4083 91.7141C59.4083 94.6991 59.183 97.1892 62.1121 100.094C65.0411 103 70.2233 102.824 70.2233 102.824C70.2233 102.824 75.4216 103 78.3346 100.094C81.2636 97.1892 81.0222 94.6991 81.0222 91.7141C81.0222 88.761 81.2636 86.2549 78.3346 83.3657ZM35.493 75.608V85.7122C27.6553 77.0127 29.2325 73.5808 29.828 73.0859C32.0007 71.2662 35.8632 71.8089 40.1924 73.4211L35.493 75.608ZM71.9453 94.8427C71.9453 95.4174 71.6557 96.838 70.2233 96.838C68.791 96.838 68.5013 95.4174 68.5013 94.8427V88.3939C68.5013 87.0052 69.6761 86.654 70.2233 86.654C70.7705 86.654 71.9453 86.9892 71.9453 88.3939V94.8427Z" fill="#737373"/>
</g>
</g>
<g clip-path="url(#clip2_964_17553)">
<path d="M214.5 58.9952H227.112V93.0099C227.112 98.4046 229.544 101.615 231.521 102.952C229.463 104.761 223.221 106.358 218.52 102.496C215.764 100.214 214.5 96.4162 214.5 92.8795V58.9952ZM293.269 87.2729V83.6872H297.127V71.1701H292.896C291.259 63.624 284.596 58.0173 276.637 58.0173C267.461 58.0173 259.988 65.5146 259.988 74.7557V103.962C262.582 104.337 265.727 103.913 268.369 101.681C271.141 99.3988 272.389 95.6176 272.389 92.0646V90.9726H278.679V78.4555H272.389V74.6579C272.389 69.0187 280.851 69.0187 280.851 74.6579V87.224C280.851 96.4488 288.308 103.962 297.5 103.962V91.4941C295.149 91.4941 293.269 89.5872 293.269 87.2729ZM245.56 71.1375V89.5546C245.56 92.0646 241.702 92.0646 241.702 89.5546V71.1375H229.252V92.7654C229.252 96.6444 230.549 101.567 236.547 103.18C242.545 104.777 245.982 101.452 245.982 101.452C245.641 103.636 243.631 105.25 240.324 105.576C237.811 105.837 234.618 104.989 233.029 104.305V115.762C237.098 116.985 241.378 117.36 245.609 116.528C253.244 115.045 258.059 108.64 258.059 100.1V71.056H245.56V71.1375Z" fill="#737373"/>
</g>
<g clip-path="url(#clip3_964_17553)">
<path d="M486 50.1458C473.122 58.8283 471.752 65.1296 470.636 67.0572C469.568 69.0334 468.772 76.825 466.923 80.5993C465.058 84.4222 458.285 87.4352 456.388 88.6987C454.523 89.9622 451.878 94.8704 449.71 99.0982C432.482 98.3855 423.031 105.383 408.4 114.26C413.086 112.689 415.301 111.555 415.301 111.555C430.314 105.724 437.502 100.491 460.102 103.585C460.277 103.585 460.404 103.682 460.548 103.715C461.169 104.071 461.392 104.833 461.042 105.464L452.452 120.983C452.053 121.744 451.208 122.149 450.364 121.971C430.155 118.116 414.202 124.773 399.539 124.984C387.841 125.162 384 119.557 384 119.298C384 119.12 384.096 119.023 384.271 119.023C384.271 119.023 390.375 119.023 400.702 116.544C412.432 93.8175 422.887 85.8639 434.267 85.8639C434.267 85.8639 445.694 85.8639 448.706 95.8909C452.34 89.46 453.217 87.9211 453.217 87.9211C454.061 86.3985 458.795 75.4157 466.987 65.0162C475.194 54.649 481.394 52.0734 486 50.1458Z" fill="#737373"/>
</g>
<g clip-path="url(#clip4_964_17553)">
<g clip-path="url(#clip5_964_17553)">
<path d="M591.555 69.7932L584.587 71.2568L584.554 93.9114C584.554 98.0955 587.741 100.8 591.974 100.8C594.323 100.8 596.045 100.37 596.995 99.8614V94.4841C596.078 94.85 591.571 96.1546 591.571 91.9864V81.9318H596.995V75.9182H591.571L591.555 69.7932ZM605.895 78.0023L605.46 75.9182H599.28V100.291H606.41V83.8886C608.1 81.6932 610.948 82.1227 611.866 82.4091V75.9182C610.9 75.5841 607.568 74.9636 605.895 78.0023ZM620.749 66.5L613.571 68.0114V73.7705L620.749 72.2591V66.5ZM572.227 83.0932C572.227 81.9955 573.16 81.5659 574.657 81.55C576.829 81.55 579.598 82.2023 581.77 83.3636V76.7136C579.404 75.7909 577.039 75.425 574.673 75.425C568.879 75.425 565.017 78.4159 565.017 83.4114C565.017 91.2386 575.88 89.9659 575.88 93.3386C575.88 94.6432 574.737 95.0727 573.144 95.0727C570.778 95.0727 567.72 94.1023 565.322 92.8136V99.1773C567.978 100.307 570.666 100.784 573.128 100.784C579.066 100.784 583.154 98.2705 583.154 93.1796C583.154 84.7636 572.227 86.275 572.227 83.0932ZM668.001 88.3909C668.001 81.1523 664.46 75.4409 657.668 75.4409C650.877 75.4409 646.741 81.1523 646.741 88.3432C646.741 96.8545 651.617 100.784 658.57 100.784C661.981 100.784 664.54 100.02 666.488 98.9545V93.6409C664.54 94.6114 662.303 95.2 659.471 95.2C656.687 95.2 654.24 94.2295 653.918 90.9205H667.904C667.936 90.5545 668.001 89.075 668.001 88.3909ZM653.854 85.7182C653.854 82.5364 655.834 81.2 657.62 81.2C659.374 81.2 661.241 82.5364 661.241 85.7182H653.854ZM635.684 75.4409C632.884 75.4409 631.081 76.7455 630.084 77.6523L629.713 75.9023H623.421V108.484L630.566 106.989L630.583 99.0023C631.613 99.75 633.141 100.784 635.636 100.784C640.754 100.784 645.421 97.0932 645.421 88.1205C645.437 79.9114 640.706 75.4409 635.684 75.4409ZM633.978 94.9296C632.305 94.9296 631.307 94.325 630.615 93.5932L630.566 83.0932C631.307 82.2818 632.337 81.6932 633.978 81.6932C636.586 81.6932 638.388 84.5886 638.388 88.2795C638.404 92.0818 636.634 94.9296 633.978 94.9296ZM613.588 100.291H620.765V75.9182H613.588V100.291Z" fill="#737373"/>
</g>
</g>
<g clip-path="url(#clip6_964_17553)">
<g clip-path="url(#clip7_964_17553)">
<path d="M774.887 78.9887C774.77 82.6268 776.604 84.2378 776.649 85.261C776.628 85.4692 776.556 85.6693 776.441 85.8445C776.325 86.0197 776.169 86.165 775.985 86.2681L773.912 87.7072C773.643 87.8938 773.327 88.0007 773 88.0156C772.93 88.0124 771.673 88.3096 769.682 83.9021C768.467 85.4055 766.922 86.6133 765.164 87.4332C763.406 88.2531 761.482 88.6633 759.539 88.6324C756.902 88.7754 749.755 87.1483 750.123 79.6039C749.865 73.4553 755.64 69.6357 761.613 69.9585C762.763 69.9618 765.112 70.018 769.225 70.9656V68.4567C769.661 64.2067 766.844 60.9091 761.966 61.4038C761.577 61.4054 758.823 61.3235 754.54 63.0277C753.348 63.5706 753.196 63.4807 752.799 63.4807C751.599 63.4807 752.093 60.0305 752.323 59.5936C753.167 58.5656 758.132 56.6462 763.005 56.6735C766.263 56.3878 769.503 57.3848 772.026 59.4491C773.051 60.5864 773.834 61.918 774.326 63.3635C774.818 64.809 775.009 66.3383 774.888 67.8592L774.887 78.9887ZM760.887 84.1912C766.141 84.1157 768.365 80.9836 768.872 79.2971C769.27 77.6828 769.204 76.6613 769.204 74.8961C767.638 74.5234 765.383 74.117 762.796 74.1138C760.341 73.9307 755.859 75.0181 756.034 79.2955C755.833 81.9923 757.835 84.339 760.887 84.1912ZM788.575 87.8936C787.302 88.0092 786.709 87.1129 786.521 86.2279L778.454 59.7815C778.297 59.335 778.193 58.874 778.143 58.4034C778.113 58.2094 778.162 58.0116 778.279 57.8535C778.397 57.6953 778.572 57.5898 778.768 57.5601C778.807 57.5537 778.423 57.5601 782.372 57.5601C783.795 57.4188 784.258 58.5287 784.406 59.2258L790.192 81.8462L795.564 59.2258C795.649 58.7086 796.04 57.4477 797.637 57.581H800.417C800.768 57.5521 802.217 57.5007 802.471 59.2467L807.885 82.1562L813.858 59.2467C813.935 58.8965 814.298 57.4204 815.912 57.581H819.106C819.244 57.5601 820.102 57.4509 819.957 58.9592C819.887 59.2563 820.509 57.2469 811.411 86.2488C811.225 87.1338 810.631 88.0301 809.357 87.9144H806.33C804.558 88.0992 804.303 86.3628 804.276 86.1878L798.904 64.1617L793.594 86.1653C793.568 86.3404 793.314 88.0767 791.54 87.892H788.575V87.8936ZM832.877 88.7979C831.925 88.7995 827.382 88.7497 823.585 86.8238C823.207 86.665 822.885 86.3984 822.66 86.0579C822.434 85.7173 822.316 85.3181 822.32 84.9108V83.1841C822.32 81.8269 823.325 82.0758 823.751 82.2381C825.377 82.8902 826.42 83.3849 828.418 83.78C834.355 84.9895 836.966 83.4106 837.606 83.0605C839.736 81.806 839.905 78.9357 838.456 77.4467C836.759 76.0349 835.949 75.9819 829.85 74.0737C829.098 73.8665 822.77 71.8876 822.756 65.6635C822.657 61.1276 826.814 56.6398 834.018 56.6767C836.07 56.6751 841.539 57.3401 843.02 59.1856C843.238 59.5213 843.347 59.9165 843.331 60.3164V61.9403C843.331 62.6535 843.068 63.01 842.542 63.01C841.293 62.8719 839.077 61.2159 834.578 61.2834C833.462 61.2255 828.116 61.4295 828.356 65.2941C828.286 68.3395 832.667 69.4815 833.167 69.6132C839.074 71.3752 841.048 71.6676 843.392 74.3644C846.169 77.9382 844.672 82.1224 844.097 83.2693C841.006 89.291 833.013 88.8011 832.877 88.7979ZM839.389 105.641C828.045 113.948 811.577 118.37 797.516 118.37C778.543 118.494 760.21 111.577 746.12 98.9781C745.062 98.032 745.995 96.7358 747.281 97.457C762.911 106.322 780.608 110.98 798.614 110.968C812.061 110.897 825.361 108.192 837.75 103.01C839.658 102.207 841.277 104.263 839.389 105.641ZM844.118 100.294C842.667 98.4432 834.515 99.4294 830.865 99.8615C829.765 99.9852 829.579 99.0391 830.575 98.3404C837.066 93.8157 847.727 95.1119 848.952 96.633C850.175 98.1541 848.62 108.745 842.543 113.805C841.61 114.587 840.718 114.175 841.132 113.147C842.5 109.733 845.569 102.146 844.118 100.294Z" fill="#737373"/>
</g>
</g>
<g clip-path="url(#clip8_964_17553)">
<g clip-path="url(#clip9_964_17553)">
<path d="M1007.93 79.1614C1005.53 79.1614 1003.42 80.1556 1001.87 81.7111C996.175 77.7503 988.495 75.2006 979.985 74.928L984.407 54.9156L998.49 58.0906C998.49 61.5543 1001.3 64.3766 1004.75 64.3766C1008.26 64.3766 1011.09 61.4741 1011.09 58.0104C1011.09 54.5467 1008.28 51.6443 1004.75 51.6443C1002.29 51.6443 1000.17 53.1356 999.113 55.1721L983.561 51.7084C982.779 51.5 982.013 52.0612 981.805 52.847L976.951 74.912C968.505 75.2648 960.905 77.8144 955.189 81.7752C953.64 80.1556 951.453 79.1614 949.058 79.1614C940.181 79.1614 937.275 91.124 945.402 95.2131C945.114 96.4799 944.986 97.8269 944.986 99.1739C944.986 112.612 960.059 123.5 978.564 123.5C997.149 123.5 1012.22 112.612 1012.22 99.1739C1012.22 97.8269 1012.08 96.4158 1011.73 95.149C1019.69 91.0438 1016.76 79.1614 1007.93 79.1614ZM958.286 96.063C958.286 92.5351 961.097 89.6968 964.625 89.6968C968.074 89.6968 970.884 92.5191 970.884 96.063C970.884 99.5267 968.074 102.349 964.625 102.349C961.113 102.365 958.286 99.5267 958.286 96.063ZM992.502 111.056C986.691 116.893 970.293 116.893 964.481 111.056C963.843 110.495 963.843 109.501 964.481 108.859C965.04 108.298 966.03 108.298 966.589 108.859C971.028 113.43 985.749 113.51 990.379 108.859C990.938 108.298 991.928 108.298 992.486 108.859C993.141 109.501 993.141 110.495 992.502 111.056ZM992.375 102.365C988.926 102.365 986.116 99.5427 986.116 96.079C986.116 92.5512 988.926 89.7129 992.375 89.7129C995.887 89.7129 998.713 92.5351 998.713 96.079C998.697 99.5267 995.887 102.365 992.375 102.365Z" fill="#737373"/>
</g>
</g>
<defs>
<clipPath id="clip0_964_17553">
<rect width="153" height="34" fill="white" transform="translate(0 70.5)"/>
</clipPath>
<clipPath id="clip1_964_17553">
<rect width="103" height="34" fill="white" transform="translate(25 70.5)"/>
</clipPath>
<clipPath id="clip2_964_17553">
<rect width="83" height="59" fill="white" transform="translate(214.5 58)"/>
</clipPath>
<clipPath id="clip3_964_17553">
<rect width="102" height="75" fill="white" transform="translate(384 50)"/>
</clipPath>
<clipPath id="clip4_964_17553">
<rect width="151" height="42" fill="white" transform="translate(541 66.5)"/>
</clipPath>
<clipPath id="clip5_964_17553">
<rect width="103" height="42" fill="white" transform="translate(565 66.5)"/>
</clipPath>
<clipPath id="clip6_964_17553">
<rect width="151" height="62" fill="white" transform="translate(722 56.5)"/>
</clipPath>
<clipPath id="clip7_964_17553">
<rect width="104" height="62" fill="white" transform="translate(745.5 56.5)"/>
</clipPath>
<clipPath id="clip8_964_17553">
<rect width="151" height="72" fill="white" transform="translate(903 51.5)"/>
</clipPath>
<clipPath id="clip9_964_17553">
<rect width="76" height="72" fill="white" transform="translate(940.5 51.5)"/>
</clipPath>
</defs>
</svg>
